<?xml version="1.0" encoding="utf-8"?>
<!DOCTYPE svg
  PUBLIC '-//W3C//DTD SVG 1.0//EN'
  'http://www.w3.org/TR/2001/REC-SVG-20010904/DTD/svg10.dtd'>
<svg width="504" height="292" preserveAspectRatio="xMinYMin meet" viewBox="0 0 504 292" xmlns="http://www.w3.org/2000/svg" version="1.0" fill-rule="evenodd" xmlns:xlink="http://www.w3.org/1999/xlink">
	<title>...</title>
	<desc>...</desc>
	<clipPath id="clip">
		<rect x="0" y="0" width="504" height="292"/>
	</clipPath>
	<g id="group" transform="scale(1,-1) translate(0,-292)" style="clip-path: url(#clip)">
		<g transform="">
			<text x="0" y="278" style="font-family: SansB; font-size: 12px;fill: rgb(9%,17%,23%); stroke:none;" transform="translate(0,556) scale(1,-1)">Cheap candidates can produce expensive accepted data</text>
			<text x="0" y="261" style="font-family: Sans; font-size: 9px;fill: rgb(39%,45%,49%); stroke:none;" transform="translate(0,522) scale(1,-1)">Original illustrative costs; all pass rates are conditional on reaching a stage</text>
			<rect x="0" y="202" width="504" height="34" style="stroke: rgb(78%,83%,85%); stroke-linecap: butt; stroke-width: 0.4; fill: rgb(94%,96%,96%); fill-rule: evenodd;"/>
			<text x="9" y="215" style="font-family: SansB; font-size: 9px;fill: rgb(9%,17%,23%); stroke:none;" transform="translate(0,430) scale(1,-1)">Generate</text>
			<text x="110" y="215" style="font-family: Sans; font-size: 9px;fill: rgb(9%,17%,23%); stroke:none;" transform="translate(0,430) scale(1,-1)">10,000 x $0.02</text>
			<text x="257" y="215" style="font-family: SansB; font-size: 9px;fill: rgb(72%,41%,16%); stroke:none;" transform="translate(0,430) scale(1,-1)">$200</text>
			<text x="359" y="215" style="font-family: Sans; font-size: 8.6px;fill: rgb(9%,17%,23%); stroke:none;" transform="translate(0,430) scale(1,-1)">10,000 candidates</text>
			<rect x="0" y="162" width="504" height="34" style="stroke: rgb(78%,83%,85%); stroke-linecap: butt; stroke-width: 0.4; fill: rgb(100%,100%,100%); fill-rule: evenodd;"/>
			<text x="9" y="175" style="font-family: SansB; font-size: 9px;fill: rgb(9%,17%,23%); stroke:none;" transform="translate(0,350) scale(1,-1)">Structural screen</text>
			<text x="110" y="175" style="font-family: Sans; font-size: 9px;fill: rgb(9%,17%,23%); stroke:none;" transform="translate(0,350) scale(1,-1)">80% pass</text>
			<text x="257" y="175" style="font-family: SansB; font-size: 9px;fill: rgb(72%,41%,16%); stroke:none;" transform="translate(0,350) scale(1,-1)">cost omitted</text>
			<text x="359" y="175" style="font-family: Sans; font-size: 8.6px;fill: rgb(9%,17%,23%); stroke:none;" transform="translate(0,350) scale(1,-1)">8,000 candidates</text>
			<rect x="0" y="122" width="504" height="34" style="stroke: rgb(78%,83%,85%); stroke-linecap: butt; stroke-width: 0.4; fill: rgb(94%,96%,96%); fill-rule: evenodd;"/>
			<text x="9" y="135" style="font-family: SansB; font-size: 9px;fill: rgb(9%,17%,23%); stroke:none;" transform="translate(0,270) scale(1,-1)">Verify</text>
			<text x="110" y="135" style="font-family: Sans; font-size: 9px;fill: rgb(9%,17%,23%); stroke:none;" transform="translate(0,270) scale(1,-1)">8,000 x $0.05</text>
			<text x="257" y="135" style="font-family: SansB; font-size: 9px;fill: rgb(72%,41%,16%); stroke:none;" transform="translate(0,270) scale(1,-1)">$400</text>
			<text x="359" y="135" style="font-family: Sans; font-size: 8.6px;fill: rgb(9%,17%,23%); stroke:none;" transform="translate(0,270) scale(1,-1)">4,000 pass (50%)</text>
			<rect x="0" y="82" width="504" height="34" style="stroke: rgb(78%,83%,85%); stroke-linecap: butt; stroke-width: 0.4; fill: rgb(100%,100%,100%); fill-rule: evenodd;"/>
			<text x="9" y="95" style="font-family: SansB; font-size: 9px;fill: rgb(9%,17%,23%); stroke:none;" transform="translate(0,190) scale(1,-1)">Review</text>
			<text x="110" y="95" style="font-family: Sans; font-size: 9px;fill: rgb(9%,17%,23%); stroke:none;" transform="translate(0,190) scale(1,-1)">4,000 x $0.50</text>
			<text x="257" y="95" style="font-family: SansB; font-size: 9px;fill: rgb(72%,41%,16%); stroke:none;" transform="translate(0,190) scale(1,-1)">$2,000</text>
			<text x="359" y="95" style="font-family: Sans; font-size: 8.6px;fill: rgb(9%,17%,23%); stroke:none;" transform="translate(0,190) scale(1,-1)">3,600 pass (90%)</text>
			<text x="0" y="50" style="font-family: SansB; font-size: 10px;fill: rgb(7%,49%,52%); stroke:none;" transform="translate(0,100) scale(1,-1)">Counted total: $2,600 / 3,600 accepted = about $0.72 each</text>
			<text x="0" y="29" style="font-family: Sans; font-size: 9px;fill: rgb(9%,17%,23%); stroke:none;" transform="translate(0,58) scale(1,-1)">Two-cent generation is only one component of the accepted-example cost.</text>
			<text x="0" y="9" style="font-family: Sans; font-size: 8.8px;fill: rgb(39%,45%,49%); stroke:none;" transform="translate(0,18) scale(1,-1)">Add setup, screening, storage, review overhead and maintenance in a real budget.</text>
		</g>
	</g>
</svg>
