<?xml version="1.0" encoding="utf-8"?>
<!DOCTYPE svg
  PUBLIC '-//W3C//DTD SVG 1.0//EN'
  'http://www.w3.org/TR/2001/REC-SVG-20010904/DTD/svg10.dtd'>
<svg width="504" height="240" preserveAspectRatio="xMinYMin meet" viewBox="0 0 504 240" xmlns="http://www.w3.org/2000/svg" version="1.0" fill-rule="evenodd" xmlns:xlink="http://www.w3.org/1999/xlink">
	<title>...</title>
	<desc>...</desc>
	<clipPath id="clip">
		<rect x="0" y="0" width="504" height="240"/>
	</clipPath>
	<g id="group" transform="scale(1,-1) translate(0,-240)" style="clip-path: url(#clip)">
		<g transform="">
			<text x="0" y="226" style="font-family: SansB; font-size: 12px;fill: rgb(9%,17%,23%); stroke:none;" transform="translate(0,452) scale(1,-1)">Synthetic candidates need an acceptance policy</text>
			<text x="0" y="209" style="font-family: Sans; font-size: 9px;fill: rgb(39%,45%,49%); stroke:none;" transform="translate(0,418) scale(1,-1)">Proposed gates; each channel supplies different evidence</text>
			<rect x="0" y="116" width="120" height="67" rx="6" ry="6" style="stroke: rgb(78%,83%,85%); stroke-linecap: butt; stroke-width: 0.8; fill: rgb(94%,96%,96%); fill-rule: evenodd;"/>
			<text x="11" y="163" style="font-family: SansB; font-size: 9.2px;fill: rgb(9%,17%,23%); stroke:none;" transform="translate(0,326) scale(1,-1)">Recipe</text>
			<text x="11" y="146.0" style="font-family: Sans; font-size: 8.2px;fill: rgb(39%,45%,49%); stroke:none;" transform="translate(0,292) scale(1,-1)">Seeds and versions</text>
			<path d="M 120,151 L 128,151 Z" style="stroke: rgb(7%,49%,52%); stroke-linecap: butt; stroke-width: 1.3;"/>
			<polygon points="128 151, 123.6121 153.3971, 123.6121 148.6029" style="stroke: rgb(7%,49%,52%); stroke-linecap: butt; stroke-width: 1; fill: rgb(7%,49%,52%); fill-rule: evenodd;"/>
			<rect x="128" y="116" width="120" height="67" rx="6" ry="6" style="stroke: rgb(78%,83%,85%); stroke-linecap: butt; stroke-width: 0.8; fill: rgb(94%,96%,96%); fill-rule: evenodd;"/>
			<text x="139" y="163" style="font-family: SansB; font-size: 9.2px;fill: rgb(9%,17%,23%); stroke:none;" transform="translate(0,326) scale(1,-1)">Candidates</text>
			<text x="139" y="146.0" style="font-family: Sans; font-size: 8.2px;fill: rgb(39%,45%,49%); stroke:none;" transform="translate(0,292) scale(1,-1)">Origins and job IDs</text>
			<path d="M 248,151 L 256,151 Z" style="stroke: rgb(7%,49%,52%); stroke-linecap: butt; stroke-width: 1.3;"/>
			<polygon points="256 151, 251.6121 153.3971, 251.6121 148.6029" style="stroke: rgb(7%,49%,52%); stroke-linecap: butt; stroke-width: 1; fill: rgb(7%,49%,52%); fill-rule: evenodd;"/>
			<rect x="256" y="116" width="120" height="67" rx="6" ry="6" style="stroke: rgb(78%,83%,85%); stroke-linecap: butt; stroke-width: 0.8; fill: rgb(94%,96%,96%); fill-rule: evenodd;"/>
			<text x="267" y="163" style="font-family: SansB; font-size: 9.2px;fill: rgb(9%,17%,23%); stroke:none;" transform="translate(0,326) scale(1,-1)">Checks</text>
			<text x="267" y="146.0" style="font-family: Sans; font-size: 8.2px;fill: rgb(39%,45%,49%); stroke:none;" transform="translate(0,292) scale(1,-1)">Schema and evidence</text>
			<path d="M 376,151 L 384,151 Z" style="stroke: rgb(7%,49%,52%); stroke-linecap: butt; stroke-width: 1.3;"/>
			<polygon points="384 151, 379.6121 153.3971, 379.6121 148.6029" style="stroke: rgb(7%,49%,52%); stroke-linecap: butt; stroke-width: 1; fill: rgb(7%,49%,52%); fill-rule: evenodd;"/>
			<rect x="384" y="116" width="120" height="67" rx="6" ry="6" style="stroke: rgb(78%,83%,85%); stroke-linecap: butt; stroke-width: 0.8; fill: rgb(89%,94%,93%); fill-rule: evenodd;"/>
			<text x="395" y="163" style="font-family: SansB; font-size: 9.2px;fill: rgb(9%,17%,23%); stroke:none;" transform="translate(0,326) scale(1,-1)">Review</text>
			<text x="395" y="146.0" style="font-family: Sans; font-size: 8.2px;fill: rgb(39%,45%,49%); stroke:none;" transform="translate(0,292) scale(1,-1)">Human and audit policy</text>
			<rect x="254" y="29" width="122" height="56" rx="6" ry="6" style="stroke: rgb(78%,83%,85%); stroke-linecap: butt; stroke-width: 0.8; fill: rgb(98%,91%,91%); fill-rule: evenodd;"/>
			<text x="265" y="65" style="font-family: SansB; font-size: 9.2px;fill: rgb(9%,17%,23%); stroke:none;" transform="translate(0,130) scale(1,-1)">Quarantine</text>
			<text x="265" y="48.0" style="font-family: Sans; font-size: 8.2px;fill: rgb(39%,45%,49%); stroke:none;" transform="translate(0,96) scale(1,-1)">Reason + recipe link</text>
			<rect x="382" y="29" width="122" height="56" rx="6" ry="6" style="stroke: rgb(78%,83%,85%); stroke-linecap: butt; stroke-width: 0.8; fill: rgb(89%,94%,93%); fill-rule: evenodd;"/>
			<text x="393" y="65" style="font-family: SansB; font-size: 9.2px;fill: rgb(9%,17%,23%); stroke:none;" transform="translate(0,130) scale(1,-1)">Release</text>
			<text x="393" y="48.0" style="font-family: Sans; font-size: 8.2px;fill: rgb(39%,45%,49%); stroke:none;" transform="translate(0,96) scale(1,-1)">Accepted revisions</text>
			<path d="M 314,116 L 314,85 Z" style="stroke: rgb(65%,27%,29%); stroke-linecap: butt; stroke-width: 1.3;"/>
			<polygon points="314 85, 316.3971 89.38791, 311.6029 89.38791" style="stroke: rgb(65%,27%,29%); stroke-linecap: butt; stroke-width: 1; fill: rgb(65%,27%,29%); fill-rule: evenodd;"/>
			<path d="M 444,116 L 444,85 Z" style="stroke: rgb(7%,49%,52%); stroke-linecap: butt; stroke-width: 1.3;"/>
			<polygon points="444 85, 446.3971 89.38791, 441.6029 89.38791" style="stroke: rgb(7%,49%,52%); stroke-linecap: butt; stroke-width: 1; fill: rgb(7%,49%,52%); fill-rule: evenodd;"/>
			<text x="0" y="86" style="font-family: SansB; font-size: 10px;fill: rgb(9%,17%,23%); stroke:none;" transform="translate(0,172) scale(1,-1)">Separate evidence channels</text>
			<text x="8" y="66" style="font-family: Sans; font-size: 9px;fill: rgb(39%,45%,49%); stroke:none;" transform="translate(0,132) scale(1,-1)">Structure and schema</text>
			<text x="8" y="49" style="font-family: Sans; font-size: 9px;fill: rgb(39%,45%,49%); stroke:none;" transform="translate(0,98) scale(1,-1)">Execution or ground truth</text>
			<text x="8" y="32" style="font-family: Sans; font-size: 9px;fill: rgb(39%,45%,49%); stroke:none;" transform="translate(0,64) scale(1,-1)">Model and human judgments</text>
			<text x="0" y="7" style="font-family: Sans; font-size: 8.8px;fill: rgb(39%,45%,49%); stroke:none;" transform="translate(0,14) scale(1,-1)">Audit accepted and rejected samples, including independent families.</text>
		</g>
	</g>
</svg>
